HIERARCHY
ROOT Hips
{
    OFFSET 0.000000 0.000000 0.000000
    CHANNELS 6 Xposition Yposition Zposition Zrotation Xrotation Yrotation
    JOINT Spine
    {
        OFFSET -0.000000 8.249566 0.000000
        CHANNELS 3 Zrotation Xrotation Yrotation
        JOINT Spine1
        {
            OFFSET -0.000000 22.751984 0.000000
            CHANNELS 3 Zrotation Xrotation Yrotation
            JOINT Neck
            {
                OFFSET -0.000000 22.658548 2.059868
                CHANNELS 3 Zrotation Xrotation Yrotation
                JOINT Head
                {
                    OFFSET -0.000000 14.084625 -2.012089
                    CHANNELS 3 Zrotation Xrotation Yrotation
                    End Site
                    {
                        OFFSET -0.000000 25.151115 0.000000
                    }
                }
            }
            JOINT LeftShoulder
            {
                OFFSET 4.014710 20.418900 0.142539
                CHANNELS 3 Zrotation Xrotation Yrotation
                JOINT LeftArm
                {
                    OFFSET 12.409162 0.000000 0.000000
                    CHANNELS 3 Zrotation Xrotation Yrotation
                    JOINT LeftForeArm
                    {
                        OFFSET 32.111938 0.000000 0.000000
                        CHANNELS 3 Zrotation Xrotation Yrotation
                        JOINT LeftHand
                        {
                            OFFSET 25.320286 0.000000 0.000000
                            CHANNELS 3 Zrotation Xrotation Yrotation
                            End Site
                            {
                                OFFSET 15.090670 0.000000 0.000000
                            }
                        }
                    }
                }
            }
            JOINT RightShoulder
            {
                OFFSET -4.019371 20.418900 0.142539
                CHANNELS 3 Zrotation Xrotation Yrotation
                JOINT RightArm
                {
                    OFFSET -12.409162 0.000000 0.000000
                    CHANNELS 3 Zrotation Xrotation Yrotation
                    JOINT RightForeArm
                    {
                        OFFSET -32.111938 0.000000 0.000000
                        CHANNELS 3 Zrotation Xrotation Yrotation
                        JOINT RightHand
                        {
                            OFFSET -25.320286 0.000000 0.000000
                            CHANNELS 3 Zrotation Xrotation Yrotation
                            End Site
                            {
                                OFFSET -15.090670 0.000000 0.000000
                            }
                        }
                    }
                }
            }
        }
    }
    JOINT LeftUpLeg
    {
        OFFSET 10.060447 0.000000 0.000000
        CHANNELS 3 Zrotation Xrotation Yrotation
        JOINT LeftLeg
        {
            OFFSET -0.000000 -49.683781 0.000000
            CHANNELS 3 Zrotation Xrotation Yrotation
            JOINT LeftFoot
            {
                OFFSET -0.000000 -37.035061 0.000000
                CHANNELS 3 Zrotation Xrotation Yrotation
                JOINT LeftToeBase
                {
                    OFFSET -0.000000 -6.539289 15.090670
                    CHANNELS 3 Zrotation Xrotation Yrotation
                    End Site
                    {
                        OFFSET -0.000000 0.000000 4.024179
                    }
                }
            }
        }
    }
    JOINT RightUpLeg
    {
        OFFSET -10.060447 0.000000 0.000000
        CHANNELS 3 Zrotation Xrotation Yrotation
        JOINT RightLeg
        {
            OFFSET -0.000000 -49.683781 0.000000
            CHANNELS 3 Zrotation Xrotation Yrotation
            JOINT RightFoot
            {
                OFFSET -0.000000 -37.035061 0.000000
                CHANNELS 3 Zrotation Xrotation Yrotation
                JOINT RightToeBase
                {
                    OFFSET -0.000000 -6.539289 15.090670
                    CHANNELS 3 Zrotation Xrotation Yrotation
                    End Site
                    {
                        OFFSET -0.000000 0.000000 4.024179
                    }
                }
            }
        }
    }
}
MOTION
Frames:    4
Frame Time:    0.008333
-5.144969    96.939590    117.200073    -1.554792    -1.023037    -179.968369    -0.512255    2.998142    -0.100235    -0.529107    -1.465586    -0.120776    5.448640    5.521767    7.863763    -6.117448    -0.308819    6.759523    22.561857    -4.006724    -1.731467    -22.610596    1.363695    0.421344    1.785869    0.115110    0.039224    -4.410963    0.600371    -12.554706    -20.771196    -0.254861    -8.652453    22.572548    2.861288    12.231016    2.535183    4.320743    -4.245030    -1.840359    4.470563    -3.503407    -0.060672    -5.907891    -4.900994    0.000000    0.000000    0.000000    0.000000    0.000000    0.000000    0.000000    0.000000    0.000000    -3.563898    -4.730989    -4.692938    0.000000    0.000000    0.000000    0.000000    0.000000    0.000000    0.000000    0.000000    0.000000    
-5.160043    96.940063    117.209099    -1.565464    -1.034235    179.999313    -0.503775    2.993447    -0.102187    -0.541171    -1.462557    -0.122537    5.394160    5.365582    7.682430    -5.892582    -0.038349    6.614543    22.556047    -4.018811    -1.702435    -22.683392    1.471612    0.394973    1.891905    0.107584    0.175865    -4.781347    0.633461    -12.617769    -20.784576    -0.260784    -8.659616    22.585915    2.891427    12.238515    2.546542    4.276153    -4.261212    -1.949945    4.429666    -3.477471    -0.073020    -5.898042    -4.878184    -2.599264    7.837659    2.060351    3.832524    -3.954795    3.868088    0.000000    0.000000    0.000000    -3.582522    -4.755239    -4.818692    -6.314948    5.358230    2.345428    22.191853    12.251522    6.183548    0.000000    0.000000    0.000000    
-5.172500    96.943047    117.216347    -1.563348    -1.048162    179.958633    -0.494335    2.988914    -0.095906    -0.535852    -1.471424    -0.115564    5.219126    5.408378    7.508969    -5.526164    -0.134957    6.501024    22.556278    -3.999109    -1.701236    -22.734482    1.425537    0.425576    1.868836    0.131933    0.181916    -4.921886    0.670754    -12.559850    -20.787937    -0.244641    -8.667551    22.569582    2.894145    12.246685    2.576159    4.244868    -4.284750    -2.061691    4.399265    -3.246873    -0.067918    -5.884858    -4.856113    -2.588161    7.806707    1.987733    3.798964    -3.996136    3.870041    0.000000    0.000000    0.000000    -3.575028    -4.776165    -4.843618    -7.239318    8.083009    3.767840    17.387367    0.493078    12.376134    0.000000    0.000000    0.000000    
-5.177540    96.921631    117.192497    -1.471523    -1.047078    179.799286    -0.385058    2.924565    -0.030953    -0.552961    -1.402192    -0.049124    4.949883    5.558474    7.361896    -4.950655    -0.481455    6.449184    22.560568    -4.003839    -1.690087    -22.784290    1.415959    0.448700    1.832690    0.162219    0.208959    -4.961255    0.701366    -12.468612    -20.789108    -0.261892    -8.680008    22.567852    2.914338    12.248651    2.561482    4.236478    -4.266090    -1.956895    4.386893    -3.243531    0.051803    -5.801538    -4.701592    -2.602257    7.697737    1.982460    3.821557    -4.100371    3.898787    0.000000    0.000000    0.000000    -3.463851    -4.751602    -4.547762    -6.133467    9.344876    4.388725    13.503369    -4.648222    10.558603    0.000000    0.000000    0.000000    
